<?xml version="1.0" standalone="no"?><!DOCTYPE svg PUBLIC "-//W3C//DTD SVG 1.1//EN" "http://www.w3.org/Graphics/SVG/1.1/DTD/svg11.dtd"><svg t="1512612638007" class="icon" style="" viewBox="0 0 1024 1024" version="1.1" xmlns="http://www.w3.org/2000/svg" p-id="1046" xmlns:xlink="http://www.w3.org/1999/xlink" width="128" height="128"><defs><style type="text/css"></style></defs><path d="M164.149201 654.777975c6.59325-36.376554 121.179396-66.159858 347.396092-66.159858s341.030195 29.783304 347.396092 66.159858c35.694494-37.058615 89.804618-54.792185 88.440498-70.024867s-3.865009-29.783304-48.880995-42.969804S750.26643 488.35524 750.26643 488.35524c11.14032-54.110124-99.12611-70.024867-239.175844-70.024867s-250.08881 15.914742-239.175844 70.024867c0 0-102.991119 40.241563-147.779751 53.428064s-47.516874 27.737123-48.880995 42.969804 53.20071 33.193606 88.895205 70.024867z" p-id="1047" fill="#d81e06"></path><path d="M276.007105 425.37833s0-59.111901 235.538188-59.1119 235.538188 59.111901 235.538188 59.1119c37.285968-37.740675 90.941385-43.197158 87.758437-77.982238s-56.383659-41.605684-148.007105-87.758437a351.943162 351.943162 0 0 1-131.410301-107.310834c4.092362-27.282416 0-48.653641-22.735347-51.609237V73.889876c13.186501-9.548845 0-15.232682 0-15.232682C554.060391 14.323268 535.64476 0 511.545293 0s-42.515098 14.323268-21.143872 58.657194c0 0-13.413854 5.683837 0 15.232682v26.827708c-22.735346 2.728242-26.600355 24.099467-22.735346 51.609237a351.943162 351.943162 0 0 1-131.182949 107.310834c-90.941385 45.470693-145.05151 52.973357-148.007105 87.758437s50.245115 39.104796 87.531084 77.982238zM996.944938 758.451155c-31.374778-9.776199-125.044405-55.701599-125.044405-55.701599C877.584369 647.047957 722.529307 636.589698 511.545293 636.589698s-366.039076 9.776199-360.35524 65.477798c0 0-93.669627 45.470693-125.044405 55.701598s-54.792185 40.468917 55.701599 63.886323c1.591474-22.735346 132.319716-49.335702 429.698046-49.335701s428.106572 27.509769 429.698046 49.335701c110.721137-22.9627 87.30373-53.655417 55.701599-63.204262zM511.545293 839.388988c-331.48135 0-428.788632 17.73357-428.788632 48.198934v136.412078h391.275311v-138.685613h75.253996V1023.090586h391.047957v-136.412078c0-29.783304-97.307282-47.28952-428.788632-47.28952z" p-id="1048" fill="#d81e06"></path></svg>