<?xml version="1.0" standalone="no"?><!DOCTYPE svg PUBLIC "-//W3C//DTD SVG 1.1//EN" "http://www.w3.org/Graphics/SVG/1.1/DTD/svg11.dtd"><svg t="1512612700672" class="icon" style="" viewBox="0 0 1024 1024" version="1.1" xmlns="http://www.w3.org/2000/svg" p-id="3002" xmlns:xlink="http://www.w3.org/1999/xlink" width="128" height="128"><defs><style type="text/css"></style></defs><path d="M857.022 531.932c-16.95-9.526-38.382-3.642-47.908 13.168-39.783 70.181-224.131 304.398-294.172 392.79-71.442-88.112-260.273-322.889-300.056-392.93-9.526-16.95-31.098-23.114-47.908-13.448-16.95 9.526-22.833 30.538-13.168 47.348 51.97 91.614 322.749 421.367 334.236 435.375 6.724 8.125 16.67 10.646 27.176 10.646 0 0 0.14 0 0.14 0 10.646 0 20.592-2.662 27.316-10.926 11.207-14.008 275.682-342.501 327.512-433.974 9.666-16.95 3.782-38.382-13.168-48.048v0z" p-id="3003" fill="#d81e06"></path><path d="M512 21.333c-225.112 0-408.199 169.359-408.199 377.381 0 18.211 1.681 37.122 4.903 55.893 3.222 19.191 21.433 31.939 40.624 28.717 19.191-3.362 31.939-21.433 28.717-40.624-2.521-14.989-3.922-29.837-3.922-43.986 0-169.359 151.569-307.060 337.878-307.060 186.309 0 337.878 137.841 337.878 307.060 0 14.428-1.261 29.277-3.922 44.406-3.362 19.191 9.526 37.262 28.577 40.624 1.961 0.42 4.062 0.56 6.024 0.56 16.81 0 31.659-12.047 34.6-29.137 3.362-19.051 5.043-38.102 5.043-56.453 0-208.022-183.087-377.381-408.199-377.381v0z" p-id="3004" fill="#d81e06"></path><path d="M374.72 367.336c0 75.818 61.463 137.28 137.28 137.28 75.818 0 137.28-61.463 137.28-137.28 0-75.818-61.463-137.28-137.28-137.28-75.818 0-137.28 61.463-137.28 137.28z" p-id="3005" fill="#d81e06"></path></svg>